<svg xmlns="http://www.w3.org/2000/svg" width="256" height="256" viewBox="0 0 100 100"><rect width="100" height="100" rx="20" fill="#c82937"></rect><path fill="#fff" d="M10.00 81.28Q9.37 81.28 9.01 80.92Q8.65 80.56 8.65 79.93L8.65 79.93L8.65 75.79Q8.65 75.16 9.01 74.80Q9.37 74.44 10.00 74.44L10.00 74.44L15.31 74.44Q18.46 74.44 20.39 72.46Q22.33 70.48 22.33 67.15L22.33 67.15L22.33 19.99Q22.33 19.45 22.69 19.09Q23.05 18.73 23.59 18.73L23.59 18.73L28.45 18.73Q28.99 18.73 29.35 19.09Q29.71 19.45 29.71 19.99L29.71 19.99L29.71 67.24Q29.71 71.02 28.09 74.26Q26.47 77.50 23.41 79.39Q20.35 81.28 16.21 81.28L16.21 81.28L10.00 81.28ZM47.62 81.28Q47.08 81.28 46.72 80.92Q46.36 80.56 46.36 80.02L46.36 80.02L46.36 19.99Q46.36 19.45 46.72 19.09Q47.08 18.73 47.62 18.73L47.62 18.73L52.48 18.73Q53.02 18.73 53.38 19.09Q53.74 19.45 53.74 19.99L53.74 19.99L53.74 44.92L83.98 44.92L83.98 19.99Q83.98 19.45 84.34 19.09Q84.70 18.73 85.24 18.73L85.24 18.73L90.09 18.73Q90.64 18.73 91.00 19.09Q91.36 19.45 91.36 19.99L91.36 19.99L91.36 80.02Q91.36 80.56 91.00 80.92Q90.64 81.28 90.09 81.28L90.09 81.28L85.24 81.28Q84.70 81.28 84.34 80.92Q83.98 80.56 83.98 80.02L83.98 80.02L83.98 51.67L53.74 51.67L53.74 80.02Q53.74 80.56 53.38 80.92Q53.02 81.28 52.48 81.28L52.48 81.28L47.62 81.28Z"></path></svg>